<svg enable-background="new 0 0 1911.5 1442" viewBox="0 0 1911.5 1442" xmlns="http://www.w3.org/2000/svg"><g fill="#da291c"><path d="m1417.3 1092.5h-335v102.5h232.5l.3 5.4c-31.3 89.2-103.1 140.7-216.4 140.7-130.8 0-229.5-104.9-229.5-237.5 0-137.9 102.7-246.7 239-246.7 104.4 0 178.8 51.2 221 142.8l96.1-44.3c-59.4-128.6-172-199.4-317.1-199.4-193.3 0-344.7 152.7-344.7 347.7 0 189.8 147.3 338.5 335.3 338.5 98.1 0 172.2-39.6 225.7-101.4l9.6 77.2h83.3v-325.5z"/><path d="m1417.3 537.6h-529.8v-169.1h468.8v-98.1h-468.8v-169.1h529.8v-100.7h-637.8v637.7h637.8z"/><path d="m528.9 264.1h-421v-263.6h-107.9v637.8h107.9v-272.5h421v272.5h108.9v-637.8h-108.9z"/><path d="m372.9 1316.2v-434.5h264.9v-101.6h-637.8v101.6h264.9v434.5h-264.9v101.7h637.8v-101.7z"/><path d="m1684.7 0h41l-63.3 173.3h-39.8l-63.5-173.3h42.5l41.8 121.9z"/><path d="m1761.6 173.3v-173.3h62.8c52.1 0 87 33.2 87 86.8s-34.9 86.5-87.2 86.5zm61.2-36.4c26.6 0 48.4-15.4 48.4-50.1s-21.7-50.3-48.4-50.3h-22.5v100.4z"/></g></svg>